<?xml version="1.0" encoding="utf-8"?>
<!-- Generator: Adobe Illustrator 26.0.1, SVG Export Plug-In . SVG Version: 6.00 Build 0)  -->
<svg version="1.1" id="Layer_1" xmlns="http://www.w3.org/2000/svg" xmlns:xlink="http://www.w3.org/1999/xlink" x="0px" y="0px"
	 viewBox="0 0 250 125" style="enable-background:new 0 0 250 125;" xml:space="preserve">
<style type="text/css">
	.st0{fill:#0066CC;}
	.st1{fill:#CC0A0A;}
	.st2{fill:#FFFFFF;stroke:#FF00FF;stroke-width:0.3871;stroke-miterlimit:10;}
	.st3{fill:#FF00FF;}
</style>
<g>
	<g>
		<path class="st0" d="M37.36,61.64c0.15,0.13,0.23,0.31,0.23,0.54l-0.08,0.39l-8.86,25.55c-0.05,0.15-0.15,0.28-0.29,0.37
			c-0.14,0.09-0.28,0.14-0.41,0.14c-0.41,0-0.67-0.16-0.77-0.46l-7.08-17.88l-7.08,17.88c-0.13,0.31-0.4,0.46-0.81,0.46
			c-0.16,0-0.3-0.04-0.43-0.14c-0.13-0.09-0.21-0.21-0.23-0.37L2.67,62.56L2.6,62.22c0-0.23,0.09-0.42,0.27-0.56
			c0.18-0.14,0.37-0.21,0.58-0.21c0.15,0,0.3,0.05,0.45,0.14c0.14,0.09,0.24,0.21,0.29,0.37l8.21,23.69l6.97-17.61
			c0.13-0.33,0.37-0.5,0.74-0.5c0.15,0,0.3,0.04,0.45,0.14c0.14,0.09,0.24,0.21,0.29,0.37l7.01,17.65L36,61.95
			c0.13-0.33,0.39-0.5,0.77-0.5C37.01,61.44,37.21,61.51,37.36,61.64z"/>
		<path class="st0" d="M58.73,87.3c0.15,0.16,0.23,0.34,0.23,0.54c0,0.23-0.08,0.42-0.23,0.56c-0.15,0.14-0.34,0.21-0.54,0.21H43.59
			c-0.21,0-0.39-0.08-0.54-0.23c-0.15-0.15-0.23-0.33-0.23-0.54V62.29c0-0.21,0.08-0.39,0.23-0.54s0.33-0.23,0.54-0.23h14.59
			c0.21,0,0.39,0.08,0.54,0.23s0.23,0.34,0.23,0.54c0,0.23-0.08,0.42-0.23,0.56c-0.15,0.14-0.34,0.21-0.54,0.21H44.44v10.8h12
			c0.21,0,0.39,0.08,0.54,0.23c0.15,0.15,0.23,0.34,0.23,0.54c0,0.23-0.08,0.42-0.23,0.56s-0.34,0.21-0.54,0.21h-12v11.65h13.74
			C58.39,87.07,58.57,87.15,58.73,87.3z"/>
		<path class="st0" d="M82.63,76.7c0.99,1.19,1.49,2.72,1.49,4.61c0,2.35-0.74,4.16-2.23,5.42c-1.48,1.26-3.37,1.9-5.67,1.9H65.54
			c-0.21,0-0.39-0.08-0.54-0.23c-0.15-0.15-0.23-0.33-0.23-0.54V62.29c0-0.21,0.08-0.39,0.23-0.54s0.33-0.23,0.54-0.23h10.41
			c2.06,0,3.72,0.59,4.96,1.78c1.24,1.19,1.86,2.79,1.86,4.8c0,1.45-0.36,2.76-1.08,3.93c-0.72,1.17-1.73,1.98-3.02,2.42
			C80.32,74.76,81.64,75.51,82.63,76.7z M79.73,64.42c-0.94-0.9-2.26-1.35-3.97-1.35h-9.37v10.88h9.37c1.6-0.03,2.9-0.55,3.89-1.57
			c0.99-1.02,1.49-2.46,1.49-4.32C81.14,66.54,80.67,65.33,79.73,64.42z M80.72,85.62c1.19-0.97,1.78-2.41,1.78-4.32
			c0-1.91-0.59-3.35-1.78-4.32c-1.19-0.97-2.75-1.45-4.68-1.45h-9.64v11.54h9.64C77.97,87.07,79.53,86.59,80.72,85.62z"/>
		<path class="st1" d="M162.08,61.75c0.16,0.15,0.23,0.35,0.23,0.58v25.47c-0.03,0.23-0.12,0.43-0.27,0.58
			c-0.16,0.16-0.34,0.23-0.54,0.23c-0.26,0-0.46-0.08-0.6-0.23c-0.14-0.15-0.21-0.35-0.21-0.58V75.46h-16.88v12.35
			c-0.03,0.23-0.12,0.43-0.27,0.58c-0.15,0.16-0.33,0.23-0.54,0.23c-0.26,0-0.46-0.08-0.6-0.23c-0.14-0.15-0.21-0.35-0.21-0.58
			V62.33c0-0.23,0.08-0.43,0.23-0.58c0.15-0.15,0.35-0.23,0.58-0.23c0.23,0,0.43,0.08,0.58,0.23c0.16,0.15,0.23,0.35,0.23,0.58
			v11.58h16.88V62.33c0-0.23,0.08-0.43,0.23-0.58c0.16-0.15,0.35-0.23,0.58-0.23S161.93,61.6,162.08,61.75z"/>
		<path class="st1" d="M189.76,87.81c0,0.23-0.07,0.42-0.21,0.56c-0.14,0.14-0.32,0.21-0.52,0.21c-0.16,0-0.27-0.03-0.35-0.08
			c-0.7-0.39-1.25-1.04-1.66-1.96c-0.41-0.92-0.62-2.42-0.62-4.51c0-2.12-0.57-3.57-1.7-4.35s-2.45-1.18-3.95-1.18h-9.06v11.34
			c0,0.21-0.08,0.39-0.23,0.54c-0.15,0.16-0.35,0.23-0.58,0.23c-0.23,0-0.43-0.08-0.58-0.23c-0.16-0.15-0.23-0.33-0.23-0.54V62.29
			c0-0.21,0.08-0.39,0.23-0.54c0.15-0.15,0.33-0.23,0.54-0.23h10.22c1.5,0,2.83,0.3,3.99,0.91c1.16,0.61,2.06,1.44,2.71,2.5
			c0.64,1.06,0.97,2.26,0.97,3.6c0,1.73-0.46,3.21-1.37,4.45c-0.92,1.24-2.11,2.08-3.58,2.52c1.24,0.39,2.26,1.16,3.06,2.3
			c0.8,1.15,1.2,2.56,1.2,4.24c0,1.73,0.11,2.94,0.33,3.62c0.22,0.68,0.55,1.17,0.99,1.45C189.62,87.29,189.76,87.52,189.76,87.81z
			 M181.25,74.95c1.63-0.16,3.01-0.8,4.14-1.94c1.13-1.14,1.7-2.62,1.7-4.45c0-1.6-0.57-2.92-1.7-3.95
			c-1.14-1.03-2.65-1.55-4.53-1.55h-9.17v11.89H181.25z"/>
		<path class="st1" d="M197.12,88.39c-0.15,0.16-0.33,0.23-0.54,0.23c-0.26,0-0.46-0.08-0.6-0.23c-0.14-0.15-0.21-0.35-0.21-0.58
			V62.33c0-0.23,0.08-0.43,0.23-0.58c0.15-0.15,0.35-0.23,0.58-0.23c0.23,0,0.43,0.08,0.58,0.23c0.16,0.15,0.23,0.35,0.23,0.58
			v25.47C197.36,88.04,197.27,88.23,197.12,88.39z"/>
		<path class="st1" d="M225.24,61.71c0.14,0.13,0.21,0.3,0.21,0.5c0,0.1-0.03,0.23-0.08,0.39l-10.61,25.51
			c-0.16,0.33-0.4,0.5-0.74,0.5c-0.15,0-0.3-0.04-0.44-0.14c-0.14-0.09-0.24-0.21-0.29-0.37l-10.53-25.4
			c-0.08-0.15-0.12-0.31-0.12-0.46c0-0.21,0.07-0.38,0.21-0.52c0.14-0.14,0.32-0.21,0.52-0.21c0.39,0,0.67,0.21,0.85,0.62
			l9.83,23.65l9.87-23.77c0.18-0.33,0.43-0.5,0.74-0.5C224.91,61.52,225.1,61.58,225.24,61.71z"/>
		<path class="st1" d="M246.59,87.3c0.16,0.16,0.23,0.34,0.23,0.54c0,0.23-0.08,0.42-0.23,0.56c-0.15,0.14-0.33,0.21-0.54,0.21
			h-14.59c-0.21,0-0.39-0.08-0.54-0.23c-0.16-0.15-0.23-0.33-0.23-0.54V62.29c0-0.21,0.08-0.39,0.23-0.54
			c0.15-0.15,0.33-0.23,0.54-0.23h14.59c0.21,0,0.39,0.08,0.54,0.23c0.16,0.15,0.23,0.34,0.23,0.54c0,0.23-0.08,0.42-0.23,0.56
			c-0.15,0.14-0.33,0.21-0.54,0.21h-13.74v10.8h12c0.21,0,0.39,0.08,0.54,0.23c0.15,0.15,0.23,0.34,0.23,0.54
			c0,0.23-0.08,0.42-0.23,0.56c-0.16,0.14-0.34,0.21-0.54,0.21h-12v11.65h13.74C246.26,87.07,246.44,87.15,246.59,87.3z"/>
	</g>
	<g>
		<path class="st2" d="M122.93,60.92v8.57c0,2-0.62,3.61-1.85,4.84c1.27,1.42,1.91,2.96,1.91,4.63v8.93c0,1.25-0.45,2.33-1.36,3.23
			c-0.91,0.9-2,1.35-3.27,1.35h-16.17c-0.64,0-1.18-0.22-1.62-0.67c-0.44-0.44-0.67-0.98-0.67-1.62c0-0.63,0.22-1.17,0.67-1.62
			c0.44-0.45,0.98-0.67,1.62-0.67h16.11v-8.93c0-0.64-0.22-1.18-0.67-1.65c-0.44-0.46-0.98-0.69-1.62-0.69h-9.2
			c-0.64,0-1.17-0.22-1.62-0.65s-0.67-0.98-0.67-1.63c0-0.63,0.22-1.17,0.67-1.62s0.98-0.67,1.62-0.67h9.25
			c0.62,0,1.15-0.22,1.61-0.67c0.45-0.44,0.68-0.98,0.68-1.62v-8.85h-16.33c-0.64,0-1.17-0.22-1.62-0.67
			c-0.44-0.44-0.67-0.98-0.67-1.62c0-0.63,0.22-1.17,0.67-1.62c0.44-0.44,0.98-0.67,1.62-0.67h16.33c1.27,0,2.35,0.45,3.24,1.35
			C122.49,58.59,122.93,59.67,122.93,60.92z"/>
	</g>
	<g>
		<path class="st3" d="M131.07,37.44c0,0,0,0-6.73,16.16H97.41c-6.73-16.16-6.73-16.16-6.73-16.16l12.12,6.73l8.08-14.81l8.08,14.81
			L131.07,37.44z"/>
		<circle class="st0" cx="87.99" cy="33.4" r="2.69"/>
		<circle class="st3" cx="110.88" cy="25.32" r="2.69"/>
		<circle class="st1" cx="133.77" cy="33.4" r="2.69"/>
	</g>
</g>
<g>
</g>
<g>
</g>
<g>
</g>
<g>
</g>
<g>
</g>
<g>
</g>
<g>
</g>
<g>
</g>
<g>
</g>
<g>
</g>
<g>
</g>
<g>
</g>
<g>
</g>
<g>
</g>
<g>
</g>
</svg>
